<svg width="24" height="24" viewBox="0 0 24 24" fill="none" xmlns="http://www.w3.org/2000/svg">
<path fill-rule="evenodd" clip-rule="evenodd" d="M11.18 3.9001H12.82C13.9138 3.9001 14.6259 3.9015 15.1693 3.94589C15.6916 3.98857 15.8976 4.06184 16.008 4.11808C16.3843 4.30983 16.6903 4.61579 16.882 4.99212C16.9383 5.10251 17.0115 5.3085 17.0542 5.83084C17.0986 6.3742 17.1 7.0863 17.1 8.1801V15.8201C17.1 16.9139 17.0986 17.626 17.0542 18.1694C17.0115 18.6917 16.9383 18.8977 16.882 19.0081C16.6903 19.3844 16.3843 19.6904 16.008 19.8821C15.8976 19.9384 15.6916 20.0117 15.1693 20.0543C14.6259 20.0987 13.9138 20.1001 12.82 20.1001H11.18C10.0862 20.1001 9.37411 20.0987 8.83075 20.0543C8.30841 20.0117 8.10242 19.9384 7.99203 19.8821C7.6157 19.6904 7.30974 19.3844 7.11799 19.0081C7.06175 18.8977 6.98848 18.6917 6.9458 18.1694C6.90141 17.626 6.90001 16.9139 6.90001 15.8201V8.18009C6.90001 7.08629 6.90141 6.3742 6.9458 5.83084C6.98848 5.3085 7.06175 5.10251 7.11799 4.99212C7.30974 4.61579 7.6157 4.30983 7.99203 4.11808C8.10242 4.06184 8.30841 3.98857 8.83075 3.94589C9.37411 3.9015 10.0862 3.9001 11.18 3.9001ZM5.10001 8.18009C5.10001 6.0519 5.10001 4.9878 5.51418 4.17493C5.8785 3.45992 6.45983 2.87859 7.17484 2.51427C7.98771 2.1001 9.05181 2.1001 11.18 2.1001H12.82C14.9482 2.1001 16.0123 2.1001 16.8252 2.51427C17.5402 2.87859 18.1215 3.45992 18.4858 4.17493C18.9 4.9878 18.9 6.0519 18.9 8.1801V15.8201C18.9 17.9483 18.9 19.0124 18.4858 19.8253C18.1215 20.5403 17.5402 21.1216 16.8252 21.4859C16.0123 21.9001 14.9482 21.9001 12.82 21.9001H11.18C9.05181 21.9001 7.98771 21.9001 7.17484 21.4859C6.45983 21.1216 5.8785 20.5403 5.51418 19.8253C5.10001 19.0124 5.10001 17.9483 5.10001 15.8201V8.18009ZM11.25 16.2001C10.7529 16.2001 10.35 16.603 10.35 17.1001C10.35 17.5972 10.7529 18.0001 11.25 18.0001H12.75C13.2471 18.0001 13.65 17.5972 13.65 17.1001C13.65 16.603 13.2471 16.2001 12.75 16.2001H11.25Z" fill="#98A2B3"/>
</svg>
